<?xml version="1.0"?>
<svg xmlns="http://www.w3.org/2000/svg" xmlns:xlink="http://www.w3.org/1999/xlink" xmlns:svgjs="http://svgjs.com/svgjs" version="1.1" width="512" height="512" x="0" y="0" viewBox="0 0 512.001 512.001" style="enable-background:new 0 0 512 512" xml:space="preserve" class=""><g>
<path xmlns="http://www.w3.org/2000/svg" style="" d="M154.195,361.349H37.045c-4.143,0-7.5-3.358-7.5-7.5s3.357-7.5,7.5-7.5h117.15  c4.143,0,7.5,3.358,7.5,7.5S158.338,361.349,154.195,361.349z" fill="#b3bdcc" data-original="#b3bdcc" class=""/>
<g xmlns="http://www.w3.org/2000/svg">
	<path style="" d="M26.148,396.125c-0.727,0-1.467-0.106-2.199-0.331c-3.96-1.213-6.188-5.407-4.975-9.367   L51.16,281.314c1.212-3.961,5.403-6.189,9.367-4.975c3.96,1.213,6.188,5.407,4.975,9.367L33.316,390.818   C32.328,394.047,29.357,396.125,26.148,396.125z" fill="#b59385" data-original="#b59385" class=""/>
	<path style="" d="M164.841,396.125c-3.21,0-6.18-2.077-7.168-5.306l-32.186-105.113   c-1.213-3.96,1.015-8.154,4.975-9.367c3.96-1.212,8.155,1.015,9.367,4.975l32.185,105.113c1.213,3.961-1.015,8.154-4.975,9.367   C166.309,396.018,165.568,396.125,164.841,396.125z" fill="#b59385" data-original="#b59385" class=""/>
</g>
<path xmlns="http://www.w3.org/2000/svg" style="" d="M58.209,227.921l-7.619-86.822c-1.253-14.273-13.205-25.223-27.534-25.223h-7.043  c-9.396,0-16.772,8.052-15.951,17.412L10.614,253.52c2.224,25.347,23.45,44.792,48.895,44.792h102.265  c8.522,0,15.43-6.908,15.43-15.43v-3.808c0-16.902-13.702-30.604-30.604-30.604H80.64C68.967,248.47,59.23,239.549,58.209,227.921z" fill="#ff6000" data-original="#78d7a8" class=""/>
<path xmlns="http://www.w3.org/2000/svg" style="" d="M18.18,115.876h-2.167c-9.396,0-16.772,8.052-15.951,17.412L10.614,253.52  c2.224,25.347,23.45,44.792,48.895,44.792h63.9C36.671,284.652,28.59,255.344,18.18,115.876z" fill="#69bf96" data-original="#69bf96" class=""/>
<path xmlns="http://www.w3.org/2000/svg" style="" d="M474.955,361.349h-117.15c-4.143,0-7.5-3.358-7.5-7.5s3.357-7.5,7.5-7.5h117.15  c4.143,0,7.5,3.358,7.5,7.5S479.098,361.349,474.955,361.349z" fill="#b3bdcc" data-original="#b3bdcc" class=""/>
<g xmlns="http://www.w3.org/2000/svg">
	<path style="" d="M485.852,396.125c-3.21,0-6.18-2.077-7.168-5.306l-32.186-105.113   c-1.213-3.96,1.015-8.154,4.975-9.367c3.958-1.212,8.155,1.015,9.367,4.975l32.186,105.113c1.213,3.961-1.015,8.154-4.975,9.367   C487.319,396.018,486.579,396.125,485.852,396.125z" fill="#b59385" data-original="#b59385" class=""/>
	<path style="" d="M347.159,396.125c-0.728,0-1.467-0.106-2.199-0.331c-3.96-1.213-6.188-5.407-4.975-9.367   l32.186-105.113c1.213-3.961,5.404-6.189,9.367-4.975c3.96,1.213,6.188,5.407,4.975,9.367l-32.186,105.113   C353.339,394.047,350.368,396.125,347.159,396.125z" fill="#b59385" data-original="#b59385" class=""/>
</g>
<path xmlns="http://www.w3.org/2000/svg" style="" d="M453.791,227.921l7.619-86.822c1.253-14.273,13.205-25.223,27.534-25.223h7.043  c9.396,0,16.772,8.052,15.951,17.412L501.386,253.52c-2.224,25.347-23.45,44.792-48.895,44.792H350.227  c-8.522,0-15.43-6.908-15.43-15.43v-3.808c0-16.902,13.702-30.604,30.603-30.604h65.96  C443.033,248.47,452.77,239.549,453.791,227.921z" fill="#799ee5" data-original="#799ee5" class=""/>
<path xmlns="http://www.w3.org/2000/svg" style="" d="M457.467,186.03l-3.676,41.891c-1.02,11.628-10.758,20.549-22.431,20.549H365.4  c-16.902,0-30.604,13.702-30.604,30.604v3.808c0,8.522,6.908,15.43,15.43,15.43h102.265c15.906,0,30.163-7.599,39.161-19.488  C471.855,266.358,460.896,230.04,457.467,186.03z" fill="#ff3c00" data-original="#6e8fd1" class=""/>
<rect xmlns="http://www.w3.org/2000/svg" x="236.76" y="201.67" style="" width="38.473" height="156.11" fill="#b3bdcc" data-original="#b3bdcc" class=""/>
<rect xmlns="http://www.w3.org/2000/svg" x="236.76" y="201.67" style="" width="38.473" height="33.574" fill="#a8b2bf" data-original="#a8b2bf" class=""/>
<path xmlns="http://www.w3.org/2000/svg" style="" d="M287.744,357.776h-63.488c-9.148,0-17.142,6.18-19.445,15.034l-1.814,6.972  c-1.164,4.474,2.213,8.841,6.835,8.841h92.335c4.623,0,7.999-4.367,6.836-8.841l-1.814-6.972  C304.886,363.956,296.893,357.776,287.744,357.776z" fill="#414c59" data-original="#414c59" class=""/>
<path xmlns="http://www.w3.org/2000/svg" style="" d="M361.69,167.419H150.31c-12.906,0-24.034,9.073-26.633,21.715l0,0  c-1.33,6.472,3.613,12.535,10.22,12.535h244.206c6.607,0,11.55-6.063,10.22-12.535l0,0  C385.724,176.492,374.596,167.419,361.69,167.419z" fill="#dd8700" data-original="#f4e08f" class=""/>
<path xmlns="http://www.w3.org/2000/svg" style="" d="M289.571,201.668c-20.197-8.985-24.969-25.049-22.299-34.249H150.31  c-12.906,0-24.034,9.073-26.633,21.715c-1.33,6.472,3.613,12.535,10.22,12.535h155.674V201.668z" fill="#ff6000" data-original="#ebce72" class=""/>
<g xmlns="http://www.w3.org/2000/svg">
</g>
<g xmlns="http://www.w3.org/2000/svg">
</g>
<g xmlns="http://www.w3.org/2000/svg">
</g>
<g xmlns="http://www.w3.org/2000/svg">
</g>
<g xmlns="http://www.w3.org/2000/svg">
</g>
<g xmlns="http://www.w3.org/2000/svg">
</g>
<g xmlns="http://www.w3.org/2000/svg">
</g>
<g xmlns="http://www.w3.org/2000/svg">
</g>
<g xmlns="http://www.w3.org/2000/svg">
</g>
<g xmlns="http://www.w3.org/2000/svg">
</g>
<g xmlns="http://www.w3.org/2000/svg">
</g>
<g xmlns="http://www.w3.org/2000/svg">
</g>
<g xmlns="http://www.w3.org/2000/svg">
</g>
<g xmlns="http://www.w3.org/2000/svg">
</g>
<g xmlns="http://www.w3.org/2000/svg">
</g>
</g></svg>
