<svg width="38" height="32" viewBox="0 0 38 32" fill="none" xmlns="http://www.w3.org/2000/svg">
<g filter="url(#filter0_d)">
<path d="M6.03306 8.26696H15.0025V0H4V10.8264H6.03306V8.26696Z" fill="#F06F15"/>
<path d="M17.0355 13.3861C17.9933 13.3861 18.7697 12.6221 18.7697 11.6797C18.7697 10.7372 17.9933 9.97326 17.0355 9.97326H7.76709V13.3861H17.0355Z" fill="#F06F15"/>
<path d="M10.6671 20.2116C10.6671 22.0964 12.22 23.6244 14.1354 23.6244C16.0509 23.6244 17.6038 22.0964 17.6038 20.2116H10.6671Z" fill="#F06F15"/>
<path d="M30.1261 15.0924C30.294 15.0924 30.46 15.1006 30.6238 15.116L29.3728 8.55123H31.1055V6.84493H29.0477L28.7226 5.13852H21.9336V6.84482H24.6066L26.2518 16.7988H19.9023L18.8947 14.5584C18.3569 14.8959 17.7193 15.0924 17.0355 15.0924H8.6525C8.27673 15.8686 8.06604 16.7365 8.06604 17.652V18.5051H25.2213C25.9371 16.519 27.8654 15.0924 30.1261 15.0924Z" fill="#F06F15"/>
<path d="M33.5769 20.6111C33.8106 18.7394 32.458 17.0357 30.556 16.8058C28.6539 16.5758 26.9225 17.9067 26.6888 19.7783C26.4551 21.65 27.8076 23.3537 29.7097 23.5836C31.6118 23.8136 33.3432 22.4827 33.5769 20.6111Z" fill="#F06F15"/>
</g>
<defs>
<filter id="filter0_d" x="0" y="0" width="37.6031" height="31.6244" filterUnits="userSpaceOnUse" color-interpolation-filters="sRGB">
<feFlood flood-opacity="0" result="BackgroundImageFix"/>
<feColorMatrix in="SourceAlpha" type="matrix" values="0 0 0 0 0 0 0 0 0 0 0 0 0 0 0 0 0 0 127 0"/>
<feOffset dy="4"/>
<feGaussianBlur stdDeviation="2"/>
<feColorMatrix type="matrix" values="0 0 0 0 0 0 0 0 0 0 0 0 0 0 0 0 0 0 0.25 0"/>
<feBlend mode="normal" in2="BackgroundImageFix" result="effect1_dropShadow"/>
<feBlend mode="normal" in="SourceGraphic" in2="effect1_dropShadow" result="shape"/>
</filter>
</defs>
</svg>
