<svg width="32" height="32" viewBox="0 0 32 32" fill="none" xmlns="http://www.w3.org/2000/svg">
<g clip-path="url(#clip0)" filter="url(#filter0_d)">
<path d="M16.0007 1.87936C10.4109 1.87936 5.88019 6.41012 5.88019 12C5.88019 16.0276 8.23896 19.4948 11.6447 21.1238L11.9615 15.0029C11.9615 15.0029 11.3657 14.8073 11.2352 14.7437C9.97144 14.187 9.05335 12.5478 9.05335 10.4205C9.05335 8.0991 10.8537 6.09959 12.5942 6.08307C12.5964 6.08307 12.5964 6.08307 12.5979 6.08307C12.5986 6.08307 12.6001 6.08307 12.6008 6.08307C14.3417 6.09953 16.1421 8.09904 16.1421 10.4205C16.1421 12.5478 15.2228 14.1863 13.9616 14.7437C13.9517 14.748 13.2296 15.0102 13.2296 15.0102L13.5833 21.8159C14.3597 22.007 15.1668 22.1191 16.0021 22.1191C17.1286 22.1191 18.2075 21.9272 19.2197 21.5881L19.5331 15.5229C18.707 15.3413 18.0024 14.8153 17.5607 14.1555C17.0136 13.3359 17.9819 6.08238 17.9819 6.08238H18.6118V12.8891H19.2373V6.08314H19.9214V12.8906H20.544V6.08314H21.2537V12.8906H21.8784V6.08314H22.3618C22.3618 6.08314 23.3301 13.3367 22.7823 14.1563C22.345 14.8096 21.6469 15.334 20.8311 15.52C20.8165 15.5252 20.8032 15.5302 20.8032 15.5302L21.0757 20.7474C24.0904 18.9946 26.1221 15.7383 26.1221 12C26.1206 6.41018 21.5898 1.87936 16.0007 1.87936Z" fill="#F06F15"/>
<path d="M10.5346 9.39144C10.5709 9.24387 10.6196 9.10361 10.6218 9.10109C10.6376 9.0458 10.6082 8.98939 10.5482 8.95352C10.4911 8.92275 10.4215 8.93851 10.3892 8.98793C10.3892 8.98793 10.32 9.09819 10.2197 9.26114C10.138 9.4014 10.0172 9.6255 9.93474 9.90457C9.86332 10.1492 9.77803 10.4744 9.73957 10.8384C9.72312 11.0296 9.7194 11.202 9.72526 11.3796C9.73957 11.5821 9.77027 11.7553 9.8289 11.9534C10.0277 12.5185 10.1808 13.0657 10.7334 13.6054C10.9081 13.7849 11.0876 13.9072 11.2172 13.9973L11.263 14.0295C11.2908 14.0478 11.3175 14.0647 11.3439 14.0801C11.4527 14.1372 11.5255 14.1577 11.5387 14.1606C11.5929 14.1752 11.6486 14.1489 11.6716 14.1049C11.6933 14.0588 11.6775 14.0009 11.6325 13.9644C11.6325 13.9644 11.5694 13.9095 11.4886 13.8069C11.4333 13.7446 11.3732 13.6545 11.3033 13.5528C11.2539 13.481 11.1956 13.3997 11.1414 13.3206C10.8722 12.9097 10.717 12.3362 10.5024 11.7488C10.4603 11.6213 10.4259 11.4561 10.413 11.3159C10.3959 11.154 10.3878 10.998 10.3878 10.8534C10.3816 10.5172 10.3966 10.2286 10.4259 9.99459C10.4595 9.73059 10.4859 9.53246 10.5346 9.39144Z" fill="#F06F15"/>
<path d="M16.0007 0C9.38441 0 4 5.38328 4 12C4 18.6152 9.38441 24 16.0007 24C22.6167 24 28.0001 18.6152 28.0001 12C28 5.38328 22.6167 0 16.0007 0ZM16.0007 23.105C9.87693 23.105 4.89464 18.1231 4.89464 12C4.89464 5.87618 9.87693 0.893883 16.0007 0.893883C22.1238 0.893883 27.1065 5.87618 27.1065 12C27.1064 18.1231 22.1238 23.105 16.0007 23.105Z" fill="#F06F15"/>
</g>
<defs>
<filter id="filter0_d" x="0" y="0" width="32" height="32" filterUnits="userSpaceOnUse" color-interpolation-filters="sRGB">
<feFlood flood-opacity="0" result="BackgroundImageFix"/>
<feColorMatrix in="SourceAlpha" type="matrix" values="0 0 0 0 0 0 0 0 0 0 0 0 0 0 0 0 0 0 127 0"/>
<feOffset dy="4"/>
<feGaussianBlur stdDeviation="2"/>
<feColorMatrix type="matrix" values="0 0 0 0 0 0 0 0 0 0 0 0 0 0 0 0 0 0 0.25 0"/>
<feBlend mode="normal" in2="BackgroundImageFix" result="effect1_dropShadow"/>
<feBlend mode="normal" in="SourceGraphic" in2="effect1_dropShadow" result="shape"/>
</filter>
<clipPath id="clip0">
<rect width="24" height="24" fill="white" transform="translate(4)"/>
</clipPath>
</defs>
</svg>
