<svg width="28" height="32" viewBox="0 0 28 32" fill="none" xmlns="http://www.w3.org/2000/svg">
<g filter="url(#filter0_d)">
<path d="M23.8825 7.35895C23.7719 7.18214 23.5983 7.07812 23.4141 7.07812H19.2243C18.9445 5.08542 17.4967 3.5625 15.7578 3.5625C14.0189 3.5625 12.5711 5.08542 12.2913 7.07812H8.6493L7.88367 0.604359C7.84269 0.257672 7.59539 0 7.30355 0H4.58594C4.26234 0 4 0.314812 4 0.703125C4 1.09144 4.26234 1.40625 4.58594 1.40625H6.79492L7.56051 7.87988V7.87992V7.88006L8.445 15.3566C8.54098 16.1627 8.86766 16.9024 9.3668 17.4511C8.97601 17.8383 8.72656 18.4239 8.72656 19.0781C8.72656 20.0495 9.27676 20.8692 10.0227 21.1132C9.94281 21.354 9.89844 21.6161 9.89844 21.8906C9.89844 23.0537 10.687 24 11.6562 24C12.6255 24 13.4141 23.0537 13.4141 21.8906C13.4141 21.6442 13.3783 21.4076 13.3133 21.1875H18.2023C18.1373 21.4076 18.1016 21.6442 18.1016 21.8906C18.1016 23.0537 18.8901 24 19.8594 24C20.8286 24 21.6172 23.0537 21.6172 21.8906C21.6172 20.7275 20.8286 19.7812 19.8594 19.7812H10.4844C10.1613 19.7812 9.89844 19.4658 9.89844 19.0781C9.89844 18.6904 10.1613 18.375 10.4844 18.375H19.2634C20.5645 18.375 21.7228 17.3265 22.0797 15.8279L23.9768 7.97709C24.0281 7.7647 23.9932 7.53572 23.8825 7.35895Z" fill="#F06F15"/>
</g>
<defs>
<filter id="filter0_d" x="0" y="0" width="28" height="32" filterUnits="userSpaceOnUse" color-interpolation-filters="sRGB">
<feFlood flood-opacity="0" result="BackgroundImageFix"/>
<feColorMatrix in="SourceAlpha" type="matrix" values="0 0 0 0 0 0 0 0 0 0 0 0 0 0 0 0 0 0 127 0"/>
<feOffset dy="4"/>
<feGaussianBlur stdDeviation="2"/>
<feColorMatrix type="matrix" values="0 0 0 0 0 0 0 0 0 0 0 0 0 0 0 0 0 0 0.25 0"/>
<feBlend mode="normal" in2="BackgroundImageFix" result="effect1_dropShadow"/>
<feBlend mode="normal" in="SourceGraphic" in2="effect1_dropShadow" result="shape"/>
</filter>
</defs>
</svg>
