<svg width="159" height="174" viewBox="0 0 159 174" fill="none" xmlns="http://www.w3.org/2000/svg">
<path d="M132.256 61.1719H12.7441C5.70569 61.1719 0 68.0187 0 76.4648V138.316C0 146.763 5.70569 153.609 12.7441 153.609H25.4883V112.828H21.2402C18.8922 112.828 16.9922 110.548 16.9922 107.73C16.9922 104.913 18.8922 102.633 21.2402 102.633C26.4197 102.633 120.417 102.633 123.76 102.633C126.108 102.633 128.008 104.913 128.008 107.73C128.008 110.548 126.108 112.828 123.76 112.828H119.512V153.609H132.256C139.294 153.609 145 146.763 145 138.316V76.4648C145 68.0187 139.294 61.1719 132.256 61.1719ZM29.7363 91.7578H21.2402C18.8922 91.7578 16.9922 89.4778 16.9922 86.6602C16.9922 83.8425 18.8922 81.5625 21.2402 81.5625H29.7363C32.0844 81.5625 33.9844 83.8425 33.9844 86.6602C33.9844 89.4778 32.0844 91.7578 29.7363 91.7578Z" fill="#8B8892"/>
<path d="M33.9844 112.828V168.902C33.9844 171.718 35.8864 174 38.2324 174H106.768C109.114 174 111.016 171.718 111.016 168.902V112.828H33.9844ZM98.2715 153.609H46.7285C44.3805 153.609 42.4805 151.329 42.4805 148.512C42.4805 145.694 44.3805 143.414 46.7285 143.414H98.2715C100.62 143.414 102.52 145.694 102.52 148.512C102.52 151.329 100.62 153.609 98.2715 153.609ZM98.2715 133.219H46.7285C44.3805 133.219 42.4805 130.939 42.4805 128.121C42.4805 125.303 44.3805 123.023 46.7285 123.023H98.2715C100.62 123.023 102.52 125.303 102.52 128.121C102.52 130.939 100.62 133.219 98.2715 133.219Z" fill="#8B8892"/>
<path d="M128.008 31.5249V50.9766H136.504V45.8789C136.504 39.2418 132.942 33.6364 128.008 31.5249Z" fill="#8B8892"/>
<path d="M8.49609 45.8789V50.9766H16.9922V31.5249C12.0582 33.6364 8.49609 39.2418 8.49609 45.8789Z" fill="#8B8892"/>
<path d="M94.0234 2.98691V30.586H117.023L94.0234 2.98691Z" fill="#8B8892"/>
<path d="M89.7754 40.7812C87.4274 40.7812 85.5273 38.5012 85.5273 35.6836V0H29.7363C27.3883 0 25.4883 2.28001 25.4883 5.09766C25.4883 22.1582 25.4883 33.3499 25.4883 50.9766H119.512V40.7812H89.7754Z" fill="#8B8892"/>
<path d="M134 53C120.214 53 109 64.2144 109 78C109 91.7856 120.214 103 134 103C147.786 103 159 91.7856 159 78C159 64.2144 147.786 53 134 53Z" fill="#F44336"/>
<path d="M143.024 85.0775C143.838 85.8923 143.838 87.2088 143.024 88.0236C142.617 88.4299 142.084 88.634 141.55 88.634C141.017 88.634 140.484 88.4299 140.078 88.0236L133.817 81.7629L127.557 88.0236C127.151 88.4299 126.617 88.634 126.084 88.634C125.55 88.634 125.017 88.4299 124.611 88.0236C123.796 87.2088 123.796 85.8923 124.611 85.0775L130.872 78.8172L124.611 72.5569C123.796 71.7421 123.796 70.4256 124.611 69.6108C125.426 68.7964 126.742 68.7964 127.557 69.6108L133.817 75.8715L140.078 69.6108C140.892 68.7964 142.209 68.7964 143.024 69.6108C143.838 70.4256 143.838 71.7421 143.024 72.5569L136.763 78.8172L143.024 85.0775Z" fill="#FAFAFA"/>
</svg>
