<svg width="164" height="174" viewBox="0 0 164 174" fill="none" xmlns="http://www.w3.org/2000/svg">
<path d="M132.256 61.1719H12.7441C5.70569 61.1719 0 68.0187 0 76.4648V138.316C0 146.763 5.70569 153.609 12.7441 153.609H25.4883V112.828H21.2402C18.8922 112.828 16.9922 110.548 16.9922 107.73C16.9922 104.913 18.8922 102.633 21.2402 102.633C26.4197 102.633 120.417 102.633 123.76 102.633C126.108 102.633 128.008 104.913 128.008 107.73C128.008 110.548 126.108 112.828 123.76 112.828H119.512V153.609H132.256C139.294 153.609 145 146.763 145 138.316V76.4648C145 68.0187 139.294 61.1719 132.256 61.1719ZM29.7363 91.7578H21.2402C18.8922 91.7578 16.9922 89.4778 16.9922 86.6602C16.9922 83.8425 18.8922 81.5625 21.2402 81.5625H29.7363C32.0844 81.5625 33.9844 83.8425 33.9844 86.6602C33.9844 89.4778 32.0844 91.7578 29.7363 91.7578Z" fill="#F06F15"/>
<path d="M33.9844 112.828V168.902C33.9844 171.718 35.8864 174 38.2324 174H106.768C109.114 174 111.016 171.718 111.016 168.902V112.828H33.9844ZM98.2715 153.609H46.7285C44.3805 153.609 42.4805 151.329 42.4805 148.512C42.4805 145.694 44.3805 143.414 46.7285 143.414H98.2715C100.62 143.414 102.52 145.694 102.52 148.512C102.52 151.329 100.62 153.609 98.2715 153.609ZM98.2715 133.219H46.7285C44.3805 133.219 42.4805 130.939 42.4805 128.121C42.4805 125.303 44.3805 123.023 46.7285 123.023H98.2715C100.62 123.023 102.52 125.303 102.52 128.121C102.52 130.939 100.62 133.219 98.2715 133.219Z" fill="#F06F15"/>
<path d="M128.008 31.5249V50.9766H136.504V45.8789C136.504 39.2418 132.942 33.6364 128.008 31.5249Z" fill="#F06F15"/>
<path d="M8.49609 45.8789V50.9766H16.9922V31.5249C12.0582 33.6364 8.49609 39.2418 8.49609 45.8789Z" fill="#F06F15"/>
<path d="M94.0234 2.98691V30.586H117.023L94.0234 2.98691Z" fill="#F06F15"/>
<path d="M89.7754 40.7812C87.4274 40.7812 85.5273 38.5012 85.5273 35.6836V0H29.7363C27.3883 0 25.4883 2.28001 25.4883 5.09766C25.4883 22.1582 25.4883 33.3499 25.4883 50.9766H119.512V40.7812H89.7754Z" fill="#F06F15"/>
<path d="M135.5 106.963C151.24 106.963 164 94.2111 164 78.4813C164 62.7515 151.24 50 135.5 50C119.76 50 107 62.7515 107 78.4813C107 94.2111 119.76 106.963 135.5 106.963Z" fill="#32BEA6"/>
<path d="M134.047 92.2469L120.571 81.7491L124.403 76.8319L132.678 83.2783L146.335 63.5714L151.459 67.1215L134.047 92.2469Z" fill="white"/>
</svg>
