<svg width="20" height="24" viewBox="0 0 20 24" fill="none" xmlns="http://www.w3.org/2000/svg">
<path d="M18.2422 8.4375H1.75781C0.786992 8.4375 0 9.38189 0 10.5469V19.0781C0 20.2431 0.786992 21.1875 1.75781 21.1875H3.51562V15.5625H2.92969C2.60582 15.5625 2.34375 15.248 2.34375 14.8594C2.34375 14.4707 2.60582 14.1562 2.92969 14.1562C3.6441 14.1562 16.6092 14.1562 17.0703 14.1562C17.3942 14.1562 17.6562 14.4707 17.6562 14.8594C17.6562 15.248 17.3942 15.5625 17.0703 15.5625H16.4844V21.1875H18.2422C19.213 21.1875 20 20.2431 20 19.0781V10.5469C20 9.38189 19.213 8.4375 18.2422 8.4375ZM4.10156 12.6562H2.92969C2.60582 12.6562 2.34375 12.3418 2.34375 11.9531C2.34375 11.5645 2.60582 11.25 2.92969 11.25H4.10156C4.42543 11.25 4.6875 11.5645 4.6875 11.9531C4.6875 12.3418 4.42543 12.6562 4.10156 12.6562Z" fill="#F06F15"/>
<path d="M4.6875 15.5625V23.2969C4.6875 23.6852 4.94984 24 5.27344 24H14.7266C15.0502 24 15.3125 23.6852 15.3125 23.2969V15.5625H4.6875ZM13.5547 21.1875H6.44531C6.12145 21.1875 5.85938 20.873 5.85938 20.4844C5.85938 20.0957 6.12145 19.7812 6.44531 19.7812H13.5547C13.8786 19.7812 14.1406 20.0957 14.1406 20.4844C14.1406 20.873 13.8786 21.1875 13.5547 21.1875ZM13.5547 18.375H6.44531C6.12145 18.375 5.85938 18.0605 5.85938 17.6719C5.85938 17.2832 6.12145 16.9688 6.44531 16.9688H13.5547C13.8786 16.9688 14.1406 17.2832 14.1406 17.6719C14.1406 18.0605 13.8786 18.375 13.5547 18.375Z" fill="#F06F15"/>
<path d="M17.6562 4.34827V7.03125H18.8281V6.32812C18.8281 5.41266 18.3368 4.6395 17.6562 4.34827Z" fill="#F06F15"/>
<path d="M1.17188 6.32812V7.03125H2.34375V4.34827C1.6632 4.6395 1.17188 5.41266 1.17188 6.32812Z" fill="#F06F15"/>
<path d="M12.9688 0.411984V4.21875H16.1411L12.9688 0.411984Z" fill="#F06F15"/>
<path d="M12.3828 5.625C12.0589 5.625 11.7969 5.31052 11.7969 4.92188V0H4.10156C3.7777 0 3.51562 0.314484 3.51562 0.703125C3.51562 3.0563 3.51562 4.59998 3.51562 7.03125H16.4844V5.625H12.3828Z" fill="#F06F15"/>
</svg>
