<svg width="28" height="32" viewBox="0 0 28 32" fill="none" xmlns="http://www.w3.org/2000/svg">
<g filter="url(#filter0_d)">
<path d="M8.54544 9.84375C8.04296 9.84375 7.63635 10.1582 7.63635 10.5469V13.3594C7.63635 13.748 8.04296 14.0625 8.54544 14.0625C9.04793 14.0625 9.45453 13.748 9.45453 13.3594V10.5469C9.45453 10.1582 9.04793 9.84375 8.54544 9.84375ZM19.4545 9.84375C18.9521 9.84375 18.5454 10.1582 18.5454 10.5469V13.3594C18.5454 13.748 18.9521 14.0625 19.4545 14.0625C19.957 14.0625 20.3636 13.748 20.3636 13.3594V10.5469C20.3636 10.1582 19.957 9.84375 19.4545 9.84375Z" fill="#B7B7B7"/>
<path d="M12.1818 0C11.6793 0 11.2727 0.314484 11.2727 0.703125V7.03125H9.45455V0.703125C9.45455 0.314484 9.04794 0 8.54545 0C8.04297 0 7.63636 0.314484 7.63636 0.703125V7.03125H5.81818V0.703125C5.81818 0.314484 5.41158 0 4.90909 0C4.40661 0 4 0.314484 4 0.703125V7.73438C4 9.6728 6.03836 11.25 8.54545 11.25C11.0525 11.25 13.0909 9.6728 13.0909 7.73438V0.703125C13.0909 0.314484 12.6843 0 12.1818 0ZM10.3636 12.6562H6.72727C6.22479 12.6562 5.81818 12.9707 5.81818 13.3594V21.8906C5.81818 23.0538 7.04158 24 8.54545 24C10.0493 24 11.2727 23.0538 11.2727 21.8906V13.3594C11.2727 12.9707 10.8661 12.6562 10.3636 12.6562ZM21.2727 12.6562H17.6364C17.1339 12.6562 16.7273 12.9707 16.7273 13.3594V21.8906C16.7273 23.0538 17.9507 24 19.4545 24C20.9584 24 22.1818 23.0538 22.1818 21.8906V13.3594C22.1818 12.9707 21.7752 12.6562 21.2727 12.6562ZM19.4545 11.25C22.0042 11.25 24 8.77945 24 5.625C24 2.47055 22.0042 0 19.4545 0C16.9048 0 14.9091 2.47055 14.9091 5.625C14.9091 8.77945 16.9048 11.25 19.4545 11.25Z" fill="#B7B7B7"/>
</g>
<defs>
<filter id="filter0_d" x="0" y="0" width="28" height="32" filterUnits="userSpaceOnUse" color-interpolation-filters="sRGB">
<feFlood flood-opacity="0" result="BackgroundImageFix"/>
<feColorMatrix in="SourceAlpha" type="matrix" values="0 0 0 0 0 0 0 0 0 0 0 0 0 0 0 0 0 0 127 0"/>
<feOffset dy="4"/>
<feGaussianBlur stdDeviation="2"/>
<feColorMatrix type="matrix" values="0 0 0 0 0 0 0 0 0 0 0 0 0 0 0 0 0 0 0.25 0"/>
<feBlend mode="normal" in2="BackgroundImageFix" result="effect1_dropShadow"/>
<feBlend mode="normal" in="SourceGraphic" in2="effect1_dropShadow" result="shape"/>
</filter>
</defs>
</svg>
